<svg xmlns="http://www.w3.org/2000/svg" viewBox="0 0 120 120" fill="none">
  <!-- Soft circle background -->
  <defs>
    <linearGradient id="bg" x1="0%" y1="0%" x2="100%" y2="100%">
      <stop offset="0%" stop-color="#f3c4d7"/>
      <stop offset="100%" stop-color="#c8b6e2"/>
    </linearGradient>
    <linearGradient id="hanger" x1="0%" y1="0%" x2="100%" y2="100%">
      <stop offset="0%" stop-color="#d4789c"/>
      <stop offset="100%" stop-color="#9b8bb8"/>
    </linearGradient>
  </defs>
  <circle cx="60" cy="60" r="56" fill="url(#bg)" opacity="0.9"/>
  <circle cx="60" cy="60" r="56" fill="none" stroke="white" stroke-width="1.5" opacity="0.5"/>
  <!-- Hanger hook -->
  <path d="M60 22 C60 18 64 15 67 15 C70 15 73 17 73 20 C73 23 70 25 67 25" stroke="url(#hanger)" stroke-width="3" stroke-linecap="round" fill="none"/>
  <!-- Hanger body -->
  <path d="M60 25 L38 48 L82 48 Z" stroke="url(#hanger)" stroke-width="3" stroke-linecap="round" stroke-linejoin="round" fill="none"/>
  <!-- Dress shape -->
  <path d="M44 48 L42 52 C42 52 44 54 52 56 L48 82 C48 82 54 86 60 86 C66 86 72 82 72 82 L68 56 C76 54 78 52 78 52 L76 48" fill="white" opacity="0.6" stroke="white" stroke-width="1" stroke-opacity="0.8"/>
  <!-- B letter -->
  <text x="60" y="74" text-anchor="middle" font-family="-apple-system, BlinkMacSystemFont, sans-serif" font-size="22" font-weight="600" fill="#2d2235" opacity="0.7">B</text>
</svg>
